<mxfile host="Electron" agent="Mozilla/5.0 (Windows NT 10.0; Win64; x64) AppleWebKit/537.36 (KHTML, like Gecko) draw.io/27.0.2 Chrome/134.0.6998.205 Electron/35.3.0 Safari/537.36" version="27.0.2">
  <diagram name="Page-1" id="b7a7eaba-c6c5-6fbe-34ae-1d3a4219ac39">
    <mxGraphModel dx="1028" dy="619" grid="1" gridSize="10" guides="1" tooltips="1" connect="1" arrows="1" fold="1" page="1" pageScale="1.5" pageWidth="1169" pageHeight="826" background="none" math="0" shadow="0">
      <root>
        <mxCell id="0" style=";html=1;" />
        <mxCell id="1" style=";html=1;" parent="0" />
        <mxCell id="279d4c6e8b4f5ae2-2" value="" style="html=1;shadow=0;dashed=0;align=center;verticalAlign=middle;shape=mxgraph.arrows2.arrow;dy=0.5;dx=15;direction=north;notch=0;rounded=0;strokeWidth=1;fontSize=20;rotation=35;" parent="1" vertex="1">
          <mxGeometry x="594" y="604" width="20" height="240" as="geometry" />
        </mxCell>
        <mxCell id="279d4c6e8b4f5ae2-3" value="" style="html=1;shadow=0;dashed=0;align=center;verticalAlign=middle;shape=mxgraph.arrows2.arrow;dy=0.5;dx=15;direction=north;notch=0;rounded=0;strokeWidth=1;fontSize=20;rotation=35;" parent="1" vertex="1">
          <mxGeometry x="799" y="604" width="20" height="240" as="geometry" />
        </mxCell>
        <mxCell id="279d4c6e8b4f5ae2-4" value="" style="html=1;shadow=0;dashed=0;align=center;verticalAlign=middle;shape=mxgraph.arrows2.arrow;dy=0.5;dx=15;direction=north;notch=0;rounded=0;strokeWidth=1;fontSize=20;rotation=35;" parent="1" vertex="1">
          <mxGeometry x="1029" y="604" width="20" height="240" as="geometry" />
        </mxCell>
        <mxCell id="279d4c6e8b4f5ae2-5" value="" style="html=1;shadow=0;dashed=0;align=center;verticalAlign=middle;shape=mxgraph.arrows2.arrow;dy=0.5;dx=15;direction=north;notch=0;rounded=0;strokeWidth=1;fontSize=20;rotation=90;" parent="1" vertex="1">
          <mxGeometry x="819" y="279" width="20" height="681" as="geometry" />
        </mxCell>
        <mxCell id="279d4c6e8b4f5ae2-6" value="" style="html=1;shadow=0;dashed=0;align=center;verticalAlign=middle;shape=mxgraph.arrows2.arrow;dy=0.5;dx=15;direction=north;notch=0;rounded=0;strokeWidth=1;fontSize=20;rotation=155;" parent="1" vertex="1">
          <mxGeometry x="613" y="384" width="20" height="240" as="geometry" />
        </mxCell>
        <mxCell id="279d4c6e8b4f5ae2-7" value="" style="html=1;shadow=0;dashed=0;align=center;verticalAlign=middle;shape=mxgraph.arrows2.arrow;dy=0.5;dx=15;direction=north;notch=0;rounded=0;strokeWidth=1;fontSize=20;rotation=155;" parent="1" vertex="1">
          <mxGeometry x="818" y="385" width="20" height="240" as="geometry" />
        </mxCell>
        <mxCell id="279d4c6e8b4f5ae2-8" value="" style="html=1;shadow=0;dashed=0;align=center;verticalAlign=middle;shape=mxgraph.arrows2.arrow;dy=0.5;dx=15;direction=north;notch=0;rounded=0;strokeWidth=1;fontSize=20;rotation=155;" parent="1" vertex="1">
          <mxGeometry x="1048" y="384" width="20" height="240" as="geometry" />
        </mxCell>
        <mxCell id="279d4c6e8b4f5ae2-9" value="организация" style="rounded=1;whiteSpace=wrap;html=1;shadow=1;strokeWidth=2;fontSize=20;" parent="1" vertex="1">
          <mxGeometry x="499" y="364" width="150" height="40" as="geometry" />
        </mxCell>
        <mxCell id="279d4c6e8b4f5ae2-10" value="окружение" style="rounded=1;whiteSpace=wrap;html=1;shadow=1;strokeWidth=2;fontSize=20;" parent="1" vertex="1">
          <mxGeometry x="709" y="364" width="150" height="40" as="geometry" />
        </mxCell>
        <mxCell id="279d4c6e8b4f5ae2-11" value="знания" style="rounded=1;whiteSpace=wrap;html=1;shadow=1;strokeWidth=2;fontSize=20;" parent="1" vertex="1">
          <mxGeometry x="939" y="364" width="150" height="40" as="geometry" />
        </mxCell>
        <mxCell id="279d4c6e8b4f5ae2-12" value="техника" style="rounded=1;whiteSpace=wrap;html=1;shadow=1;strokeWidth=2;fontSize=20;" parent="1" vertex="1">
          <mxGeometry x="462" y="816" width="150" height="40" as="geometry" />
        </mxCell>
        <mxCell id="279d4c6e8b4f5ae2-13" value="мотивация" style="rounded=1;whiteSpace=wrap;html=1;shadow=1;strokeWidth=2;fontSize=20;" parent="1" vertex="1">
          <mxGeometry x="672" y="816.0000000000001" width="150" height="40" as="geometry" />
        </mxCell>
        <mxCell id="279d4c6e8b4f5ae2-14" value="препопадаватель" style="rounded=1;whiteSpace=wrap;html=1;shadow=1;strokeWidth=2;fontSize=20;" parent="1" vertex="1">
          <mxGeometry x="860" y="816" width="169" height="40" as="geometry" />
        </mxCell>
        <mxCell id="279d4c6e8b4f5ae2-15" value="не успеваю&lt;div&gt;сделать&lt;/div&gt;&lt;div&gt;курсовой&lt;/div&gt;" style="ellipse;whiteSpace=wrap;html=1;rounded=1;shadow=1;strokeWidth=2;fontSize=20;" parent="1" vertex="1">
          <mxGeometry x="1171" y="560" width="120" height="120" as="geometry" />
        </mxCell>
        <mxCell id="279d4c6e8b4f5ae2-16" value="прокрастинация" style="html=1;shadow=0;dashed=0;align=center;verticalAlign=middle;shape=mxgraph.arrows2.arrow;dy=0.5;dx=15;direction=north;notch=0;rounded=0;strokeWidth=1;fontSize=20;rotation=90;horizontal=0;labelPosition=left;verticalLabelPosition=middle;" parent="1" vertex="1">
          <mxGeometry x="482.82" y="355.19" width="20" height="201.62" as="geometry" />
        </mxCell>
        <mxCell id="279d4c6e8b4f5ae2-17" value="&lt;font style=&quot;font-size: 16px;&quot;&gt;&lt;font style=&quot;&quot;&gt;много дел&amp;nbsp;&lt;/font&gt;&lt;span style=&quot;background-color: transparent; color: light-dark(rgb(0, 0, 0), rgb(255, 255, 255));&quot;&gt;по дому&lt;/span&gt;&lt;/font&gt;" style="html=1;shadow=0;dashed=0;align=center;verticalAlign=middle;shape=mxgraph.arrows2.arrow;dy=0.5;dx=15;direction=north;notch=0;rounded=0;strokeWidth=1;fontSize=20;rotation=90;horizontal=0;labelPosition=left;verticalLabelPosition=middle;" parent="1" vertex="1">
          <mxGeometry x="701.25" y="369.25" width="20" height="173.5" as="geometry" />
        </mxCell>
        <mxCell id="279d4c6e8b4f5ae2-18" value="не понимаю&amp;nbsp;&lt;span style=&quot;background-color: transparent; color: light-dark(rgb(0, 0, 0), rgb(255, 255, 255));&quot;&gt;тему&lt;/span&gt;" style="html=1;shadow=0;dashed=0;align=center;verticalAlign=middle;shape=mxgraph.arrows2.arrow;dy=0.5;dx=15;direction=north;notch=0;rounded=0;strokeWidth=1;fontSize=20;rotation=90;horizontal=0;labelPosition=left;verticalLabelPosition=middle;" parent="1" vertex="1">
          <mxGeometry x="919.75" y="356.75" width="20" height="198.5" as="geometry" />
        </mxCell>
        <mxCell id="279d4c6e8b4f5ae2-19" value="потерял файл" style="html=1;shadow=0;dashed=0;align=center;verticalAlign=middle;shape=mxgraph.arrows2.arrow;dy=0.5;dx=15;direction=north;notch=0;rounded=0;strokeWidth=1;fontSize=20;rotation=90;horizontal=0;labelPosition=left;verticalLabelPosition=middle;" parent="1" vertex="1">
          <mxGeometry x="494" y="694" width="20" height="134" as="geometry" />
        </mxCell>
        <mxCell id="279d4c6e8b4f5ae2-20" value="лень" style="html=1;shadow=0;dashed=0;align=center;verticalAlign=middle;shape=mxgraph.arrows2.arrow;dy=0.5;dx=15;direction=north;notch=0;rounded=0;strokeWidth=1;fontSize=20;rotation=90;horizontal=0;labelPosition=left;verticalLabelPosition=middle;" parent="1" vertex="1">
          <mxGeometry x="709" y="706" width="20" height="110" as="geometry" />
        </mxCell>
        <mxCell id="279d4c6e8b4f5ae2-21" value="нет поощрения" style="html=1;shadow=0;dashed=0;align=center;verticalAlign=middle;shape=mxgraph.arrows2.arrow;dy=0.5;dx=15;direction=north;notch=0;rounded=0;strokeWidth=1;fontSize=20;rotation=90;horizontal=0;labelPosition=left;verticalLabelPosition=middle;" parent="1" vertex="1">
          <mxGeometry x="923" y="689" width="20" height="144" as="geometry" />
        </mxCell>
        <mxCell id="279d4c6e8b4f5ae2-22" value="нет планов" style="html=1;shadow=0;dashed=0;align=center;verticalAlign=middle;shape=mxgraph.arrows2.arrow;dy=0.5;dx=15;direction=north;notch=0;rounded=0;strokeWidth=1;fontSize=20;rotation=90;horizontal=0;labelPosition=left;verticalLabelPosition=middle;" parent="1" vertex="1">
          <mxGeometry x="539.94" y="459.06" width="20" height="161.88" as="geometry" />
        </mxCell>
        <mxCell id="279d4c6e8b4f5ae2-23" value="&lt;font style=&quot;font-size: 18px;&quot;&gt;&lt;font style=&quot;&quot;&gt;отвлекают &lt;/font&gt;&lt;span style=&quot;background-color: transparent; color: light-dark(rgb(0, 0, 0), rgb(255, 255, 255));&quot;&gt;друзья&lt;/span&gt;&lt;/font&gt;" style="html=1;shadow=0;dashed=0;align=center;verticalAlign=middle;shape=mxgraph.arrows2.arrow;dy=0.5;dx=15;direction=north;notch=0;rounded=0;strokeWidth=1;fontSize=20;rotation=90;horizontal=0;labelPosition=left;verticalLabelPosition=middle;" parent="1" vertex="1">
          <mxGeometry x="741.75" y="453.75" width="20" height="172.5" as="geometry" />
        </mxCell>
        <mxCell id="279d4c6e8b4f5ae2-24" value="&lt;font style=&quot;font-size: 14px;&quot;&gt;нет доступа к источникам&lt;/font&gt;" style="html=1;shadow=0;dashed=0;align=center;verticalAlign=middle;shape=mxgraph.arrows2.arrow;dy=0.5;dx=15;direction=north;notch=0;rounded=0;strokeWidth=1;fontSize=20;rotation=90;horizontal=0;labelPosition=left;verticalLabelPosition=middle;" parent="1" vertex="1">
          <mxGeometry x="955.25" y="436.25" width="20" height="207.5" as="geometry" />
        </mxCell>
        <mxCell id="279d4c6e8b4f5ae2-25" value="нет интернета" style="html=1;shadow=0;dashed=0;align=center;verticalAlign=middle;shape=mxgraph.arrows2.arrow;dy=0.5;dx=15;direction=north;notch=0;rounded=0;strokeWidth=1;fontSize=20;rotation=90;horizontal=0;labelPosition=left;verticalLabelPosition=middle;" parent="1" vertex="1">
          <mxGeometry x="520.75" y="598.75" width="20" height="182.5" as="geometry" />
        </mxCell>
        <mxCell id="279d4c6e8b4f5ae2-26" value="нет цели" style="html=1;shadow=0;dashed=0;align=center;verticalAlign=middle;shape=mxgraph.arrows2.arrow;dy=0.5;dx=15;direction=north;notch=0;rounded=0;strokeWidth=1;fontSize=20;rotation=90;horizontal=0;labelPosition=left;verticalLabelPosition=middle;" parent="1" vertex="1">
          <mxGeometry x="760" y="635" width="20" height="110" as="geometry" />
        </mxCell>
        <mxCell id="279d4c6e8b4f5ae2-27" value="нет дедлайнов" style="html=1;shadow=0;dashed=0;align=center;verticalAlign=middle;shape=mxgraph.arrows2.arrow;dy=0.5;dx=15;direction=north;notch=0;rounded=0;strokeWidth=1;fontSize=20;rotation=90;horizontal=0;labelPosition=left;verticalLabelPosition=middle;" parent="1" vertex="1">
          <mxGeometry x="973.5" y="617.5" width="20" height="145" as="geometry" />
        </mxCell>
      </root>
    </mxGraphModel>
  </diagram>
</mxfile>
